# xmcd
#
# Track frame offsets:
#	150
#	17431
#	29332
#	42493
#	55093
#	65760
#	82857
#	93615
#	110467
#	120294
#
# Disc length: 1747 seconds
#
# Revision: 2
# Processed by: cddbd v1.4b42PL0 Copyright (c) Steve Scherf et al.
# Submitted via: EZCDDA 4.3.2
#
DISCID=7706d10a
DTITLE=Patrik Ömalm - Original Hound Dog
DYEAR=1900
DGENRE=
TTITLE0=DEMOLITION BLUES
TTITLE1=THIS TIME I WON'T BE BACK
TTITLE2=HAIL TO THE CHIEF
TTITLE3=PRACTICE WHAT YOU PREACH
TTITLE4=BORN TO BE A FRIEND
TTITLE5=CHEAP WAY TO BE COOL
TTITLE6=TOO MUCH TROUBLE
TTITLE7=AIN'T GETTIN' OVER YOU
TTITLE8=LET ME KNOW
TTITLE9=HIGHWAY 45
EXTD=
EXTT0=
EXTT1=
EXTT2=
EXTT3=
EXTT4=
EXTT5=
EXTT6=
EXTT7=
EXTT8=
EXTT9=
PLAYORDER=
